<?xml version="1.0" encoding="UTF-8"?>
<svg version="1.1" xmlns="http://www.w3.org/2000/svg" width="1536" height="1024">
<path d="M0 0 C506.88 0 1013.76 0 1536 0 C1536 337.92 1536 675.84 1536 1024 C1029.12 1024 522.24 1024 0 1024 C0 686.08 0 348.16 0 0 Z " fill="#000000" transform="translate(0,0)"/>
<path d="M0 0 C10.44406067 7.17390469 16.73138207 18.71777107 19.06640625 30.9921875 C20.18116764 37.37673001 20.44310153 43.71873584 20.625 50.1875 C20.66367187 51.33025391 20.70234375 52.47300781 20.7421875 53.65039062 C20.83534411 56.43344445 20.92115849 59.21651022 21 62 C28.52851015 54.70078458 35.54196164 47.28535677 42 39 C42.85512619 37.92420679 43.71060781 36.84869601 44.56640625 35.7734375 C49.04271139 30.09879078 53.17080188 24.44219958 56.55078125 18.0234375 C58.99312094 14.61337831 61.85962063 13.19410713 65.9375 12.5 C70.25011712 13.20410075 71.88856971 14.96092855 75 18 C76.54134795 21.08269589 76.2499473 23.59357537 76 27 C74.6015625 29.8515625 74.6015625 29.8515625 72.625 32.625 C71.52285156 34.17960937 71.52285156 34.17960937 70.3984375 35.765625 C69.60128411 36.84547079 68.80178826 37.92359114 68 39 C66.84371094 40.57007813 66.84371094 40.57007813 65.6640625 42.171875 C51.89557756 60.58436868 36.25642464 77.95289593 18 92 C16.68740975 93.05034573 15.37633721 94.10258962 14.06640625 95.15625 C2.8249136 104.13454971 -8.86519507 112.27654795 -21 120 C-21.73573242 120.46921875 -22.47146484 120.9384375 -23.22949219 121.421875 C-49.40446401 137.92533428 -79.19760275 148.21039767 -109 156 C-109.86189941 156.23589844 -110.72379883 156.47179687 -111.61181641 156.71484375 C-119.97209511 158.92773158 -128.41350615 160.37041229 -136.94433594 161.73486328 C-139.3653812 162.12345612 -141.78422073 162.52410189 -144.203125 162.92578125 C-160.9687336 165.66934193 -177.41232499 166.2116902 -194.38183594 166.24023438 C-197.832933 166.2498824 -201.28341832 166.28096642 -204.734375 166.3125 C-219.71797645 166.38344793 -234.19141073 165.23707717 -249 163 C-250.53550758 162.77546898 -250.53550758 162.77546898 -252.10203552 162.54640198 C-284.74469729 157.77172076 -316.2760294 148.34040695 -346 134 C-347.25635254 133.40251953 -347.25635254 133.40251953 -348.53808594 132.79296875 C-370.67324584 122.23246081 -391.40151227 109.04342392 -410 93 C-411.11761719 92.04867187 -411.11761719 92.04867187 -412.2578125 91.078125 C-425.73916233 79.28765634 -438.54104694 66.56652798 -449 52 C-449.46970215 51.36400879 -449.9394043 50.72801758 -450.42333984 50.07275391 C-451.86888707 48.10628876 -453.28252902 46.12060683 -454.6875 44.125 C-455.34008789 43.23325073 -455.34008789 43.23325073 -456.00585938 42.32348633 C-459.22000989 37.60155202 -459.5701627 34.51157274 -459 29 C-457.20636089 26.1899654 -455.98119065 24.49059532 -453 23 C-447.31571627 22.44089013 -447.31571627 22.44089013 -445 23 C-441.09826014 26.34082623 -438.25098502 30.28515368 -435.375 34.5 C-430.32832343 41.71239134 -424.83897505 48.4180623 -419 55 C-418.50709473 55.55606934 -418.01418945 56.11213867 -417.50634766 56.68505859 C-375.7282578 103.51575758 -312.57433596 132.07847349 -251 141 C-250.14954102 141.12713379 -249.29908203 141.25426758 -248.42285156 141.38525391 C-235.29651329 143.31853772 -222.262606 144.64155119 -209 145 C-208.2476709 145.02723145 -207.4953418 145.05446289 -206.72021484 145.08251953 C-182.022724 145.91537235 -156.2184682 143.74696424 -132.09033203 138.42919922 C-130.23043633 138.04731454 -128.34733566 137.78268834 -126.46484375 137.53515625 C-115.50882458 135.82460358 -108.94226385 127.09034234 -102.42578125 118.78125 C-89.81832873 101.48613687 -86.75934802 85.9154201 -86.5 65 C-86.23180295 43.37093911 -83.42315831 24.79825851 -67.8125 8.3125 C-58.92648902 -0.07733778 -49.84942833 -5.08701554 -38 -8 C-37.319375 -8.19207031 -36.63875 -8.38414062 -35.9375 -8.58203125 C-23.24375418 -11.3203998 -10.5633653 -6.81345432 0 0 Z " fill="#EC4B18" transform="translate(974,321)"/>
<path d="M0 0 C0.85547928 -0.0049649 1.71095856 -0.00992981 2.59236145 -0.01504517 C5.44154656 -0.0297243 8.29067575 -0.0364831 11.13989258 -0.04199219 C13.1227468 -0.04774493 15.10560101 -0.05350265 17.0884552 -0.05926514 C21.26079569 -0.06979551 25.43311683 -0.07562285 29.60546875 -0.07910156 C34.9188493 -0.08454922 40.23196874 -0.10848778 45.54526806 -0.13707352 C49.65058598 -0.15583416 53.75584319 -0.16091288 57.86120033 -0.16243744 C59.81735961 -0.16544123 61.7735184 -0.17339167 63.72963524 -0.18662262 C84.55049496 -0.31723936 103.71086628 2.43024997 119.81176758 16.93066406 C128.67223586 26.14012234 132.02534531 37.4564532 132.03442383 49.84863281 C132.04666992 50.70908203 132.05891602 51.56953125 132.0715332 52.45605469 C132.10199518 65.93040275 127.45363922 79.49446001 117.96801758 89.36035156 C99.65141713 104.91090922 76.88608326 107.28035119 53.84692383 106.16113281 C52.08923394 106.00271097 50.33258882 105.83229453 48.57714844 105.65063477 C47.68797226 105.55933792 46.79879608 105.46804108 45.88267517 105.37397766 C45.21087723 105.30373886 44.53907928 105.23350006 43.84692383 105.16113281 C43.91397313 111.62105966 44.00379913 118.08038363 44.109375 124.53979492 C44.14260438 126.73666209 44.17064249 128.93361422 44.19335938 131.13061523 C44.22694137 134.29089524 44.27926017 137.45039802 44.33520508 140.61035156 C44.341595 141.59073898 44.34798492 142.5711264 44.35456848 143.58122253 C44.48890111 150.37007136 44.48890111 150.37007136 47.84692383 156.16113281 C50.8555908 158.16691079 52.49168458 158.61991784 55.97192383 159.22363281 C60.74674808 160.06095707 60.74674808 160.06095707 61.84692383 161.16113281 C61.97192383 164.66113281 61.97192383 164.66113281 61.84692383 168.16113281 C59.99895182 170.00910482 56.97896306 169.28889228 54.50708008 169.29052734 C53.51440628 169.29315582 53.51440628 169.29315582 52.50167847 169.2958374 C50.30423393 169.30025498 48.10686925 169.29731828 45.90942383 169.29394531 C44.38867172 169.29461838 42.86791971 169.29558843 41.34716797 169.29684448 C38.15599547 169.29832133 34.9648509 169.29616733 31.77368164 169.29150391 C27.67427853 169.28580662 23.57494087 169.28908569 19.47554016 169.29507637 C16.33410139 169.29868235 13.19267825 169.29754323 10.05123901 169.29494858 C8.53929639 169.29427941 7.02735237 169.29510738 5.51541138 169.29742813 C3.40582496 169.29995527 1.29634596 169.29611325 -0.81323242 169.29052734 C-2.0160083 169.28973175 -3.21878418 169.28893616 -4.45800781 169.28811646 C-7.15307617 169.16113281 -7.15307617 169.16113281 -8.15307617 168.16113281 C-8.19400555 165.82815848 -8.1954934 163.49408057 -8.15307617 161.16113281 C-6.95682617 160.72800781 -5.76057617 160.29488281 -4.52807617 159.84863281 C2.33849485 157.73522985 2.33849485 157.73522985 6.99481201 152.81993103 C8.2303633 147.51472018 8.12474615 142.3628081 8.10571289 136.93286133 C8.10921753 135.70452576 8.11272217 134.47619019 8.11633301 133.21063232 C8.12361278 129.85309954 8.12192642 126.49581418 8.11557484 123.13829541 C8.11049637 119.61684678 8.11521152 116.09540842 8.11834717 112.57395935 C8.12198192 106.66020825 8.11720113 100.74650717 8.10766602 94.83276367 C8.09678743 88.00720156 8.10030466 81.181759 8.11131883 74.3561998 C8.12041173 68.48509469 8.12166705 62.61402545 8.11644149 56.74291557 C8.11333214 53.24116842 8.11288377 49.73947734 8.11951447 46.23773384 C8.12639505 42.33137538 8.11684246 38.42514943 8.10571289 34.51879883 C8.11178558 32.78937294 8.11178558 32.78937294 8.11798096 31.02500916 C8.34659983 21.47585317 8.34659983 21.47585317 4.08129883 13.36035156 C1.47811546 11.96318846 -1.1101884 10.93784407 -3.90307617 9.97363281 C-4.88791992 9.62945313 -5.87276367 9.28527344 -6.88745117 8.93066406 C-7.63510742 8.67671875 -8.38276367 8.42277344 -9.15307617 8.16113281 C-9.1954934 5.82818506 -9.19400555 3.49410714 -9.15307617 1.16113281 C-7.10872196 -0.8832214 -2.81042551 0.00385018 0 0 Z " fill="#F6ECDB" transform="translate(292.153076171875,561.8388671875)"/>
<path d="M0 0 C2.7680695 2.74650013 4.89360644 5.94507548 6.50390625 9.4921875 C6.50390625 10.4821875 6.50390625 11.4721875 6.50390625 12.4921875 C6.98859375 12.06808594 7.47328125 11.64398437 7.97265625 11.20703125 C9.38738881 9.96914026 10.80421733 8.7336423 12.22265625 7.5 C13.67597669 6.22087893 15.11526467 4.92550528 16.53515625 3.609375 C24.62634492 -3.80754794 33.80253076 -8.12887134 44.94921875 -7.8203125 C53.53139469 -6.77050505 62.5766103 -4.08172256 68.50390625 2.4921875 C73.62924228 10.13523245 75.60692491 16.33508883 75.67749023 25.49804688 C75.68752075 26.52585014 75.68752075 26.52585014 75.69775391 27.57441711 C75.71174998 29.05523441 75.7236611 30.5360726 75.73370171 32.016922 C75.75018822 34.36271816 75.77342708 36.70835904 75.79859924 39.05407715 C75.86917669 45.72103068 75.92952015 52.38804558 75.98071289 59.05517578 C76.0125452 63.13941832 76.0538243 67.2234776 76.10090828 71.30757141 C76.11689412 72.86083173 76.12923144 74.41413414 76.13781548 75.967453 C76.15000236 78.1406004 76.17416374 80.31331823 76.20092773 82.48632812 C76.21638893 84.33901306 76.21638893 84.33901306 76.23216248 86.22912598 C76.49890245 89.43210256 77.01907453 91.65416362 78.50390625 94.4921875 C80.64989127 95.72853408 80.64989127 95.72853408 83.12890625 96.3046875 C83.94617187 96.53800781 84.7634375 96.77132812 85.60546875 97.01171875 C86.23195313 97.17027344 86.8584375 97.32882812 87.50390625 97.4921875 C87.54632348 99.82513525 87.54483562 102.15921317 87.50390625 104.4921875 C86.50390625 105.4921875 86.50390625 105.4921875 84.44749451 105.61244202 C83.5437056 105.61022141 82.63991669 105.60800079 81.70874023 105.60571289 C80.68775742 105.60563736 79.6667746 105.60556183 78.61485291 105.60548401 C77.50445145 105.60032272 76.39404999 105.59516144 75.25 105.58984375 C74.11941666 105.5884288 72.98883331 105.58701385 71.82398987 105.58555603 C68.1964356 105.57993769 64.56894201 105.56738208 60.94140625 105.5546875 C58.48893318 105.54967486 56.03645915 105.54511155 53.58398438 105.54101562 C47.5572708 105.5299623 41.53059286 105.51320634 35.50390625 105.4921875 C35.50390625 102.8521875 35.50390625 100.2121875 35.50390625 97.4921875 C36.14199219 97.22664062 36.78007813 96.96109375 37.4375 96.6875 C38.26378906 96.33429688 39.09007812 95.98109375 39.94140625 95.6171875 C40.76511719 95.26914062 41.58882812 94.92109375 42.4375 94.5625 C44.6613734 93.6676938 44.6613734 93.6676938 45.50390625 91.4921875 C45.60539745 89.56904325 45.64230832 87.64236093 45.64916992 85.71655273 C45.65554977 84.5044664 45.66192963 83.29238007 45.66850281 82.04356384 C45.66961563 80.72594559 45.67072845 79.40832733 45.671875 78.05078125 C45.67508932 76.6851447 45.67845352 75.3195085 45.68196106 73.95387268 C45.68795711 71.08471887 45.68980073 68.21559518 45.68920898 65.34643555 C45.68910792 61.69058741 45.70269992 58.03493593 45.71998119 54.37913418 C45.73117237 51.55391069 45.73312594 48.72873344 45.73259926 45.90349007 C45.73433713 43.906791 45.74514226 41.91010637 45.75614929 39.91343689 C45.9394678 27.85641109 45.9394678 27.85641109 41.25390625 17.0546875 C37.39005153 13.45427742 34.41389116 12.71257037 29.25390625 12.1171875 C22.95306424 12.7472717 17.80939232 14.61235279 12.88696289 18.62597656 C8.65225264 23.88944991 9.85512252 31.40730721 9.9453125 37.8125 C9.94956681 39.3189147 9.95189165 40.82533597 9.95237732 42.33175659 C9.95852811 45.48075304 9.98115901 48.62903406 10.0168457 51.77783203 C10.06219513 55.81077195 10.07687672 59.8430665 10.08058262 63.87623787 C10.0850137 66.98353414 10.10032063 70.09069553 10.11945915 73.1979332 C10.12832608 74.68505624 10.13506348 76.17219359 10.13961983 77.65933609 C10.14867775 79.73684057 10.17107883 81.81376624 10.19750977 83.89111328 C10.20814957 85.0721463 10.21878937 86.25317932 10.22975159 87.47000122 C10.49467455 90.39042039 10.88982068 92.07220968 12.50390625 94.4921875 C14.43494533 95.60691884 14.43494533 95.60691884 16.62890625 96.2421875 C17.71558594 96.60570312 17.71558594 96.60570312 18.82421875 96.9765625 C19.37851563 97.14671875 19.9328125 97.316875 20.50390625 97.4921875 C20.50390625 100.1321875 20.50390625 102.7721875 20.50390625 105.4921875 C13.25904074 105.51745489 6.01418651 105.5350193 -1.23071289 105.54711914 C-3.69751408 105.55216106 -6.16431227 105.55899441 -8.63110352 105.56762695 C-12.16813904 105.57969875 -15.7051352 105.58541706 -19.2421875 105.58984375 C-20.35258896 105.59500504 -21.46299042 105.60016632 -22.60704041 105.60548401 C-24.13851463 105.60559731 -24.13851463 105.60559731 -25.70092773 105.60571289 C-27.0566111 105.60904381 -27.0566111 105.60904381 -28.43968201 105.61244202 C-30.49609375 105.4921875 -30.49609375 105.4921875 -31.49609375 104.4921875 C-31.68359375 101.5546875 -31.68359375 101.5546875 -31.49609375 98.4921875 C-29.29811972 96.29421347 -28.3206323 96.03321233 -25.37109375 95.3671875 C-24.09234375 95.0784375 -22.81359375 94.7896875 -21.49609375 94.4921875 C-20.62433919 90.72576144 -20.35969722 87.22267111 -20.33496094 83.36010742 C-20.32535339 82.14501999 -20.31574585 80.92993256 -20.30584717 79.67802429 C-20.30159729 78.37275284 -20.29734741 77.06748138 -20.29296875 75.72265625 C-20.29014137 75.05320795 -20.287314 74.38375965 -20.28440094 73.69402504 C-20.26944804 70.15107458 -20.26019407 66.60816442 -20.25585938 63.06518555 C-20.25038134 59.42381494 -20.22635667 55.78281948 -20.19788742 52.14156628 C-20.17917364 49.32496596 -20.17405082 46.50845446 -20.1725235 43.69179726 C-20.16806305 41.70221742 -20.14946116 39.7126853 -20.1305542 37.72319031 C-20.15066384 29.51781477 -20.50033304 23.21664676 -25.80859375 16.6171875 C-31.32443656 12.25582342 -36.10296807 12.16290146 -42.875 12.953125 C-48.69992835 14.15109834 -52.27069654 17.69598612 -55.49609375 22.4921875 C-56.08448108 25.70688311 -56.08448108 25.70688311 -55.98193359 29.23852539 C-55.98573029 29.89607315 -55.98952698 30.55362091 -55.99343872 31.23109436 C-56.00081561 33.3928379 -55.97950691 35.55322082 -55.95703125 37.71484375 C-55.95464522 39.22269025 -55.95374184 40.73053976 -55.95425415 42.23838806 C-55.95113121 45.3932465 -55.93460423 48.54764885 -55.90771484 51.70239258 C-55.87370633 55.7431948 -55.86608741 59.78349711 -55.86760521 63.8244257 C-55.86706104 66.93599709 -55.85608684 70.04745955 -55.84160233 73.15899467 C-55.83524571 74.64891168 -55.83129809 76.138841 -55.82981491 77.62877083 C-55.82547133 79.71114196 -55.80794938 81.7929865 -55.78662109 83.87524414 C-55.7789975 85.05929337 -55.7713739 86.24334259 -55.76351929 87.46327209 C-55.50503082 90.3909644 -55.11534261 92.06810608 -53.49609375 94.4921875 C-51.56505467 95.60691884 -51.56505467 95.60691884 -49.37109375 96.2421875 C-48.64664062 96.48453125 -47.9221875 96.726875 -47.17578125 96.9765625 C-46.62148437 97.14671875 -46.0671875 97.316875 -45.49609375 97.4921875 C-45.49609375 100.1321875 -45.49609375 102.7721875 -45.49609375 105.4921875 C-62.65609375 105.4921875 -79.81609375 105.4921875 -97.49609375 105.4921875 C-97.49609375 102.8521875 -97.49609375 100.2121875 -97.49609375 97.4921875 C-96.85800781 97.21503906 -96.21992187 96.93789063 -95.5625 96.65234375 C-94.32306641 96.10900391 -94.32306641 96.10900391 -93.05859375 95.5546875 C-91.82302734 95.01521484 -91.82302734 95.01521484 -90.5625 94.46484375 C-88.55199258 93.66096427 -88.55199258 93.66096427 -87.49609375 92.4921875 C-87.3905256 90.13523374 -87.34930877 87.80743617 -87.35083008 85.44970703 C-87.34747147 84.71310852 -87.34411285 83.97651001 -87.34065247 83.21759033 C-87.33111372 80.7700433 -87.3291978 78.32256449 -87.328125 75.875 C-87.32491409 74.17967703 -87.32155015 72.48435435 -87.31803894 70.78903198 C-87.3120401 67.22962807 -87.31019978 63.67024846 -87.31079102 60.11083984 C-87.3108926 55.54525506 -87.29724771 50.97982593 -87.28001881 46.41427803 C-87.26891003 42.91074912 -87.26687147 39.40725795 -87.26740074 35.90371323 C-87.26621865 34.22037088 -87.26178407 32.53702762 -87.25406837 30.85370255 C-87.24429244 28.50017605 -87.24713708 26.14698876 -87.25317383 23.79345703 C-87.24474457 22.74600815 -87.24474457 22.74600815 -87.23614502 21.67739868 C-87.25986108 18.04659217 -87.42037371 16.60576756 -89.49609375 13.4921875 C-91.4444231 12.49050219 -91.4444231 12.49050219 -93.62109375 11.8046875 C-94.34554687 11.55332031 -95.07 11.30195312 -95.81640625 11.04296875 C-96.37070312 10.86121094 -96.925 10.67945313 -97.49609375 10.4921875 C-97.49609375 8.1821875 -97.49609375 5.8721875 -97.49609375 3.4921875 C-95.39482353 2.79176409 -93.29349357 2.09152635 -91.19189453 1.39208984 C-89.40015788 0.79397888 -87.60945587 0.19275916 -85.81982422 -0.41162109 C-83.02824479 -1.3514545 -80.23141461 -2.27424295 -77.43359375 -3.1953125 C-76.49193359 -3.51564453 -75.55027344 -3.83597656 -74.58007812 -4.16601562 C-69.00696079 -5.9849384 -64.36581517 -7.07413068 -58.49609375 -6.5078125 C-55.63816059 -3.64987934 -56.08809434 -1.36115666 -55.87109375 2.6171875 C-55.79632812 3.89851562 -55.7215625 5.17984375 -55.64453125 6.5 C-55.59554688 7.48742187 -55.5465625 8.47484375 -55.49609375 9.4921875 C-54.80644531 8.82832031 -54.11679688 8.16445313 -53.40625 7.48046875 C-38.19341949 -6.81416622 -18.474434 -14.33438012 0 0 Z " fill="#EB4A17" transform="translate(1103.49609375,625.5078125)"/>
<path d="M0 0 C11.73265136 10.01869476 19.71085682 23.45235857 21.34375 38.96484375 C22.57418951 56.80621666 19.19621124 73.73843396 7.63549805 87.80175781 C-1.90252449 98.63455789 -15.54429069 105.92265774 -30.01123047 107.16748047 C-48.52544857 108.17708561 -64.56099129 105.02102177 -79.03125 92.65234375 C-91.30525498 80.89555778 -97.6876436 66.29837205 -98.08740234 49.38012695 C-98.1318359 31.16065948 -92.76195735 16.75905995 -80.1328125 3.28515625 C-58.49838574 -16.98432245 -23.2792891 -17.83604356 0 0 Z " fill="#F5EBDA" transform="translate(914.65625,626.03515625)"/>
<path d="M0 0 C3.90173986 3.34082623 6.74901498 7.28515368 9.625 11.5 C14.67167657 18.71239134 20.16102495 25.4180623 26 32 C26.49290527 32.55606934 26.98581055 33.11213867 27.49365234 33.68505859 C69.2717422 80.51575758 132.42566404 109.07847349 194 118 C194.85045898 118.12713379 195.70091797 118.25426758 196.57714844 118.38525391 C209.70348671 120.31853772 222.737394 121.64155119 236 122 C236.7523291 122.02723145 237.5046582 122.05446289 238.27978516 122.08251953 C262.94082551 122.91414316 288.48088956 120.63080208 312.60107422 115.49414062 C314.97915148 115.00429446 317.36046323 114.57939522 319.75390625 114.171875 C347.77283269 109.26956334 376.63863287 99.4768277 401.84082031 86.24780273 C404.65804346 84.81818361 406.63579616 83.98639903 409.82421875 84.10546875 C412 85 412 85 414 88 C414.43985227 92.47183139 414.50545655 94.94513415 412.5625 99 C406.19098716 106.45933211 399.61815379 111.25779352 390.5 114.8125 C389.48389648 115.22137451 388.46779297 115.63024902 387.42089844 116.05151367 C360.61573773 126.61118289 333.54292372 134.56476396 305.125 139.25 C304.33226685 139.3813736 303.53953369 139.51274719 302.72277832 139.64810181 C285.30295105 142.50617627 268.25727809 143.21056387 250.61816406 143.24023438 C247.167067 143.2498824 243.71658168 143.28096642 240.265625 143.3125 C225.28202355 143.38344793 210.80858927 142.23707717 196 140 C194.46449242 139.77546898 194.46449242 139.77546898 192.89796448 139.54640198 C160.25530271 134.77172076 128.7239706 125.34040695 99 111 C98.16243164 110.60167969 97.32486328 110.20335937 96.46191406 109.79296875 C74.32675416 99.23246081 53.59848773 86.04342392 35 70 C33.88238281 69.04867187 33.88238281 69.04867187 32.7421875 68.078125 C19.26083767 56.28765634 6.45895306 43.56652798 -4 29 C-4.46970215 28.36400879 -4.9394043 27.72801758 -5.42333984 27.07275391 C-6.86888707 25.10628876 -8.28252902 23.12060683 -9.6875 21.125 C-10.12255859 20.53050049 -10.55761719 19.93600098 -11.00585938 19.32348633 C-14.22000989 14.60155202 -14.5701627 11.51157274 -14 6 C-10.5417122 0.58201578 -6.47378481 -1.56303994 0 0 Z " fill="#F6EBDB" transform="translate(529,344)"/>
<path d="M0 0 C0.95519531 -0.01224609 1.91039062 -0.02449219 2.89453125 -0.03710938 C14.7039071 -0.0614085 26.55053728 2.87165632 35.3671875 11.1171875 C40.7483298 17.45497732 43.23495127 24.69658244 43.29858398 32.89038086 C43.305271 33.56714371 43.31195801 34.24390656 43.31884766 34.94117737 C43.33288544 36.40948128 43.34478354 37.87780684 43.35479546 39.34614372 C43.37122209 41.67050433 43.39445998 43.9947043 43.41969299 46.31898499 C43.49042707 52.92701197 43.55060395 59.53510386 43.60180664 66.14331055 C43.63361083 70.18634141 43.6748876 74.2291861 43.72200203 78.27206612 C43.73801064 79.812197 43.7503375 81.35237073 43.75890923 82.89256096 C43.77107353 85.04697438 43.79522675 87.20095053 43.82202148 89.35522461 C43.83748268 91.19364174 43.83748268 91.19364174 43.85325623 93.06919861 C44.11026694 96.01843591 44.57658022 97.7048505 46.125 100.1875 C46.82367187 100.16429687 47.52234375 100.14109375 48.2421875 100.1171875 C49.15226563 100.09914063 50.06234375 100.08109375 51 100.0625 C51.90492188 100.03929687 52.80984375 100.01609375 53.7421875 99.9921875 C56.125 100.1875 56.125 100.1875 58.125 102.1875 C58.5 104.5546875 58.5 104.5546875 58.125 107.1875 C53.86636881 112.56993664 47.96373807 117.02514023 41.125 118.1875 C33.17638472 118.91596938 26.52098983 119.33210051 20.125 114.1875 C17.01144452 110.99200885 15.63266838 108.62959835 15.125 104.1875 C12.29518568 106.04921995 9.4922379 107.92217213 6.74609375 109.90625 C-3.32807675 117.16580492 -12.30942471 120.17662692 -24.875 119.1875 C-34.00183131 117.68754722 -40.5141231 114.10116605 -46.6875 107.25 C-52.51177864 99.09600991 -52.65131836 92.11790569 -51.875 82.1875 C-50.46954773 74.68004243 -46.17698808 69.53806779 -40.109375 65.21875 C-25.85052864 56.43367878 -4.78111075 48.1875 12.125 48.1875 C12.04313841 44.54081493 11.93038972 40.89568413 11.8125 37.25 C11.77866211 35.71762695 11.77866211 35.71762695 11.74414062 34.15429688 C11.48310541 26.72665845 11.08912235 19.22762549 5.6875 13.6875 C1.14492546 11.02843197 -2.60335727 10.82393843 -7.875 11.1875 C-11.14691292 12.54565253 -13.37395506 13.68645506 -15.875 16.1875 C-17.14786619 19.72867901 -17.01275352 23.33431349 -17.125 27.0625 C-17.64088022 34.81682452 -17.64088022 34.81682452 -20.125 37.9375 C-25.00572499 41.93082045 -28.58213488 42.62910457 -34.875 42.1875 C-39.35210074 41.29207985 -42.15442351 39.72336264 -44.96484375 36.02734375 C-47.18618664 31.53698968 -46.22988288 26.69575225 -45.125 22 C-40.68174997 12.00268743 -33.06516729 7.25448634 -23.125 3.3125 C-15.34326399 0.41830754 -8.21780074 0.00550054 0 0 Z " fill="#F5EBDB" transform="translate(484.875,613.8125)"/>
<path d="M0 0 C1.00627441 0.00942627 2.01254883 0.01885254 3.04931641 0.02856445 C14.82840156 0.26780627 25.8523479 2.21814115 34.7890625 10.41796875 C43.73290824 19.86592216 44.00307823 28.8669234 44.00390625 41.29296875 C44.01569452 42.83898662 44.02906227 44.38499317 44.04393005 45.9309845 C44.0799544 49.9813858 44.10027165 54.03168671 44.11547852 58.08221436 C44.14040248 64.57474612 44.18006568 71.06705627 44.23737907 77.55938148 C44.25365103 79.82001124 44.25747957 82.08042926 44.26039124 84.34111023 C44.2701695 85.73025882 44.2804331 87.11940411 44.29125977 88.50854492 C44.29767235 90.3210096 44.29767235 90.3210096 44.30421448 92.17008972 C44.55782846 95.31703368 45.21661375 97.53981253 46.5625 100.375 C47.33335937 100.35179687 48.10421875 100.32859375 48.8984375 100.3046875 C50.40277344 100.27761719 50.40277344 100.27761719 51.9375 100.25 C52.93523437 100.22679687 53.93296875 100.20359375 54.9609375 100.1796875 C57.5625 100.375 57.5625 100.375 59.5625 102.375 C59.75 105.0625 59.75 105.0625 58.5625 108.375 C51.52963054 115.59133562 44.40735905 118.47736735 34.5 118.8125 C28.5234122 118.65286892 25.13515797 118.2666238 20.5625 114.375 C15.5625 107.88782051 15.5625 107.88782051 15.5625 104.375 C15.10101562 104.73851562 14.63953125 105.10203125 14.1640625 105.4765625 C1.13753314 115.51677288 -9.64302545 120.90978917 -26.4375 119.375 C-35.52314961 117.55098701 -42.33409285 112.83142248 -47.8828125 105.453125 C-52.17594323 97.70747655 -51.89492712 86.66069191 -49.58984375 78.30078125 C-45.02411153 68.19426214 -35.92197229 62.4906815 -25.96923828 58.32373047 C-13.40021126 53.61367849 0.13682869 49.38228509 13.5625 48.375 C13.51003242 44.72805076 13.41482443 41.08336411 13.3125 37.4375 C13.29832031 36.41591797 13.28414062 35.39433594 13.26953125 34.34179688 C13.03736802 27.07508763 12.06236653 20.33583305 7.08886719 14.70727539 C2.65624518 10.83830253 -2.46731274 11.24107002 -7.97265625 11.59765625 C-11.58149753 12.73578528 -13.14527486 14.38828283 -15.4375 17.375 C-16.14318618 20.96954354 -16.14318618 20.96954354 -16.0625 24.8125 C-16.11698333 30.21179813 -16.62003776 33.71826534 -19.4375 38.375 C-23.73977529 42.39970914 -28.49764591 42.73656856 -34.1875 42.65234375 C-37.79093785 42.20816999 -39.77995535 40.77944516 -42.4375 38.375 C-45.46952697 33.92802711 -46.3137299 29.66225089 -45.4375 24.375 C-42.65539996 15.71405762 -36.55484381 10.2624891 -28.6875 6.125 C-19.43075743 1.52248554 -10.26123942 -0.14940199 0 0 Z " fill="#F6EBDB" transform="translate(669.4375,613.625)"/>
<path d="M0 0 C4.63837815 4.35945563 7.86091536 9.70775522 10.75390625 15.3359375 C11.09679688 15.99851562 11.4396875 16.66109375 11.79296875 17.34375 C15.02517636 25.04667468 14.20104332 34.14988958 13.75390625 42.3359375 C12.75390625 43.3359375 12.75390625 43.3359375 10.05210876 43.45619202 C8.84631668 43.45397141 7.6405246 43.45175079 6.39819336 43.44946289 C5.73480453 43.44960892 5.07141571 43.44975494 4.38792419 43.4499054 C2.18566669 43.44920631 -0.0165072 43.44141415 -2.21875 43.43359375 C-3.74189711 43.43172956 -5.26504482 43.43030566 -6.78819275 43.42930603 C-10.80447026 43.42548096 -14.82071183 43.41565078 -18.8369751 43.40460205 C-22.93232741 43.39438769 -27.02768551 43.38980836 -31.12304688 43.38476562 C-39.16407903 43.3740285 -47.20508192 43.35695222 -55.24609375 43.3359375 C-54.96969877 45.5349731 -54.68237625 47.73263653 -54.390625 49.9296875 C-54.15243042 51.76563477 -54.15243042 51.76563477 -53.90942383 53.63867188 C-52.30317062 62.59159739 -48.72965041 71.03345458 -41.46875 76.73046875 C-32.34246152 83.00140361 -21.38676318 83.56086802 -10.68359375 81.7109375 C-4.44968132 80.14124732 1.4273297 76.71300034 5.9140625 72.12890625 C6.52121094 71.53722656 7.12835937 70.94554687 7.75390625 70.3359375 C10.15179061 70.54751553 11.60974986 71.26385931 13.75390625 72.3359375 C12.70952104 80.60150047 5.69355554 88.16874786 -0.2109375 93.77734375 C-4.49628336 97.05921131 -9.30186772 99.23065416 -14.24609375 101.3359375 C-15.04917969 101.67882812 -15.85226562 102.02171875 -16.6796875 102.375 C-27.96012857 106.44585057 -42.11025896 105.32802922 -53.24609375 101.3359375 C-67.34217647 94.49891534 -78.25414583 83.89615283 -83.5390625 68.91015625 C-88.28346215 51.63634757 -87.70762582 33.66260687 -79.55859375 17.5234375 C-71.27699014 3.55471762 -58.62214835 -6.15450362 -42.87890625 -10.28515625 C-27.21966142 -12.53878644 -12.79590568 -9.48009708 0 0 Z " fill="#EB4C19" transform="translate(1285.24609375,628.6640625)"/>
<path d="M0 0 C2.76641912 2.76641912 2.257682 4.37962971 2.27174377 8.25657654 C2.27683061 8.90545352 2.28191745 9.55433049 2.28715843 10.22287041 C2.30187483 12.4070219 2.30235391 14.5909488 2.30297852 16.77514648 C2.3106361 18.33706097 2.31918177 19.89897132 2.32855225 21.46087646 C2.34685981 24.82922765 2.35887991 28.19752299 2.36609077 31.56591606 C2.37755242 36.88914436 2.40299816 42.21224897 2.43040466 47.53541565 C2.47209384 55.95367203 2.50448945 64.37193431 2.53287882 72.79024512 C2.58381027 87.86782151 2.64595253 102.94534629 2.71821922 118.02283531 C2.74316944 123.3173768 2.76258885 128.61190201 2.77760136 133.90648067 C2.78779252 137.19748007 2.80193882 140.48845421 2.81707764 143.7794342 C2.82324289 145.30848662 2.82769673 146.83754701 2.83033562 148.36660957 C2.83413703 150.44993334 2.84394368 152.53314523 2.85523987 154.61643982 C2.85909478 155.78359748 2.8629497 156.95075514 2.86692142 158.15328121 C2.87441241 161.075874 2.87441241 161.075874 4 164 C6.32269959 165.24498609 6.32269959 165.24498609 9.0625 166.1875 C10.44115234 166.70376953 10.44115234 166.70376953 11.84765625 167.23046875 C12.55792969 167.48441406 13.26820313 167.73835937 14 168 C14 170.64 14 173.28 14 176 C-4.15 176 -22.3 176 -41 176 C-41 173.36 -41 170.72 -41 168 C-40.37351562 167.75765625 -39.74703125 167.5153125 -39.1015625 167.265625 C-38.28429687 166.93046875 -37.46703125 166.5953125 -36.625 166.25 C-35.81289063 165.92515625 -35.00078125 165.6003125 -34.1640625 165.265625 C-31.54061668 163.73133539 -31.08933832 162.80592212 -30 160 C-29.6921197 157.33476769 -29.6921197 157.33476769 -29.72584534 154.38954163 C-29.71088264 152.67564491 -29.71088264 152.67564491 -29.69561768 150.92712402 C-29.694953 149.67765991 -29.69428833 148.4281958 -29.69360352 147.14086914 C-29.68528 145.8218309 -29.67695648 144.50279266 -29.66838074 143.14378357 C-29.64645034 139.52808903 -29.6376391 135.91247905 -29.63255429 132.29672551 C-29.62890968 130.03728372 -29.62266915 127.77786406 -29.6155529 125.51843071 C-29.59106568 117.63475446 -29.57800761 109.75114397 -29.57446289 101.86743164 C-29.5708258 94.52027249 -29.54091659 87.17353061 -29.49905831 79.82649904 C-29.46436876 73.51639914 -29.44891471 67.20643766 -29.44821686 60.89624304 C-29.44742372 57.12833229 -29.43866872 53.3608469 -29.41021919 49.59303474 C-29.38406 46.04943479 -29.38182027 42.50661356 -29.39787483 38.9629612 C-29.40055621 37.04472596 -29.37849203 35.12650603 -29.35568237 33.20840454 C-29.32733037 26.53650358 -29.32733037 26.53650358 -32.33433533 20.76634216 C-35.16791477 18.88873509 -37.73040951 17.8917065 -41 17 C-42 16 -42 16 -42.0625 12.9375 C-42.041875 11.968125 -42.02125 10.99875 -42 10 C-38.63520746 8.58038376 -35.36527569 7.52314565 -31.8125 6.6875 C-28.0018113 5.77028709 -24.22375863 4.79037986 -20.4609375 3.6953125 C-19.67227295 3.46755127 -18.8836084 3.23979004 -18.07104492 3.00512695 C-16.51433897 2.55276858 -14.95968393 2.09327454 -13.4074707 1.62573242 C-8.8379569 0.30666105 -4.807634 -0.42043948 0 0 Z " fill="#F6EBDB" transform="translate(593,555)"/>
<path d="M0 0 C1.47906892 -0.02689216 2.95827483 -0.04634621 4.4375 -0.0625 C5.26121094 -0.07410156 6.08492187 -0.08570313 6.93359375 -0.09765625 C9 0 9 0 10 1 C10.08790975 3.29151417 10.10694038 5.58572524 10.09765625 7.87890625 C10.0962413 8.5655687 10.09482635 9.25223114 10.09336853 9.95970154 C10.08775479 12.16067801 10.07520007 14.36155409 10.0625 16.5625 C10.05748676 18.05143083 10.05292355 19.54036324 10.04882812 21.02929688 C10.03863021 24.68626805 10.01905779 28.34302117 10 32 C19.9 32 29.8 32 40 32 C40 35.96 40 39.92 40 44 C30.1 44 20.2 44 10 44 C10.04043074 53.36285308 10.0976617 62.7251993 10.18390274 72.08774471 C10.22329487 76.43587113 10.2555236 80.78379754 10.27099609 85.13208008 C10.28621751 89.33392485 10.32075911 93.53521945 10.36830902 97.73681831 C10.38306658 99.33420574 10.39103777 100.93167175 10.39188385 102.52912712 C10.23323367 114.85695983 10.23323367 114.85695983 15 126 C18.65125894 128.95578105 21.46736294 129.1744535 26 128.875 C30.18346776 128.32222949 33.25879697 126.95967778 37 125 C39.24500075 125.24270278 40.40484992 125.40484992 42 127 C42.36328125 129.21875 42.36328125 129.21875 42 132 C35.53598624 140.70203787 26.76054342 146.93605964 16 149 C5.37945402 149.81593615 -2.35466233 148.62153737 -11.3125 142.875 C-21.85625214 131.59563725 -21.28995897 116.87223756 -21.1953125 102.3984375 C-21.19157557 100.70879281 -21.18873181 99.01914593 -21.18673706 97.32949829 C-21.17915411 92.91381697 -21.1595524 88.49827027 -21.1373291 84.0826416 C-21.11675474 79.5642275 -21.10771072 75.04579134 -21.09765625 70.52734375 C-21.07630071 61.68483452 -21.04223041 52.84243408 -21 44 C-22.49853516 44.01740234 -22.49853516 44.01740234 -24.02734375 44.03515625 C-25.31769531 44.04417969 -26.60804688 44.05320312 -27.9375 44.0625 C-29.22527344 44.07410156 -30.51304687 44.08570313 -31.83984375 44.09765625 C-35 44 -35 44 -36 43 C-36.27314815 37.26388889 -36.27314815 37.26388889 -36 35 C-33.67173652 32.67173652 -32.05177347 32.24866997 -28.9375 31.25 C-17.44710179 27.13985756 -9.81269608 20.35712143 -4.16796875 9.46484375 C-2.71282954 6.33305702 -1.3202804 3.19067764 0 0 Z " fill="#F6EBDB" transform="translate(766,584)"/>
<path d="M0 0 C9.74185243 8.29047036 13.54569165 22.10997684 14.80371094 34.36547852 C16.22349841 53.42135736 17.43476686 74.36844012 4.625 89.875 C-0.55330024 94.06695734 -5.3694765 95.69794984 -12 95 C-19.24690388 93.21252275 -23.36691932 89.56559057 -27.5625 83.4375 C-34.95037824 71.07790496 -36.36175538 56.67031244 -36.31567383 42.5847168 C-36.3125091 40.56829894 -36.33608532 38.55334782 -36.36132812 36.53710938 C-36.36693864 25.13093869 -35.38301055 11.77189144 -27.140625 3.02734375 C-18.53765985 -4.84792698 -10.19778682 -6.28273155 0 0 Z " fill="#030202" transform="translate(887,628)"/>
<path d="M0 0 C9.42425734 7.26482964 20.16993423 18.1103223 22.65625 30.08984375 C22.81656281 34.4895397 22.46103088 37.19807877 20.26171875 41.046875 C16.27670651 44.47841332 13.46397634 45.53894517 8.02734375 45.34765625 C4.41367397 44.6963553 2.25361543 42.71706527 0.01171875 39.984375 C-2.61022236 36.10164402 -5.08484413 32.12429597 -6.91015625 27.80078125 C-8.28352239 25.48695785 -9.54901452 25.04959607 -11.98828125 23.984375 C-13.35178444 23.03937279 -14.70542748 22.08004146 -16.05078125 21.109375 C-21.06081751 17.71974651 -26.2603975 15.8239873 -31.98828125 13.984375 C-32.95507812 13.62601563 -33.921875 13.26765625 -34.91796875 12.8984375 C-47.18476248 9.24649127 -60.97722388 13.06829985 -72.30078125 18.171875 C-81.57918476 23.25804304 -87.58528139 29.93721213 -92.22265625 39.3828125 C-94.4155139 42.61388151 -96.38405224 43.57909918 -99.98828125 44.984375 C-104.29208951 45.52235103 -106.41936631 45.27419959 -110.30078125 43.296875 C-114.11000466 40.01917113 -114.71096997 37.71757052 -115.48828125 32.859375 C-113.90649792 20.60055423 -103.07044887 8.76132093 -93.98828125 0.984375 C-65.3408119 -19.43612879 -29.06887006 -19.60723784 0 0 Z " fill="#F6EBDB" transform="translate(691.98828125,215.015625)"/>
<path d="M0 0 C10.85984452 8.41316018 20.26356056 18.93027614 25 32 C25.52446837 36.29497073 24.50687647 39.19598904 22.1875 42.875 C18.69229513 46.27034187 16.99435747 46.90529929 12.0625 47.375 C9.25910421 47.26618057 7.94634283 46.97317141 5.375 45.6875 C2.41580516 42.33893741 0.65401541 38.70099635 -1.40625 34.75390625 C-7.40884487 24.38177541 -17.9291604 19.3758614 -29 16 C-43.8420319 12.04212483 -59.43814207 14.90218108 -72.46484375 22.4140625 C-79.40884617 26.75807634 -83.11396732 31.42436318 -87.3671875 38.43359375 C-89.95958577 42.50824844 -92.30721921 45.43573974 -97 47 C-101.53811977 47.51374941 -103.44908311 47.36381304 -107.3125 44.8125 C-110.87394973 41.08540144 -112 39.0250493 -112 33.875 C-109.85715603 22.85125825 -101.61508103 14.64804674 -94 7 C-93.36449219 6.3296875 -92.72898437 5.659375 -92.07421875 4.96875 C-85.85143805 -1.10225557 -77.84672305 -4.51146948 -70 -8 C-69.01773438 -8.46019531 -68.03546875 -8.92039063 -67.0234375 -9.39453125 C-45.8673405 -17.64132939 -18.39058585 -12.46342888 0 0 Z " fill="#F5EADA" transform="translate(939,213)"/>
<path d="M0 0 C7.90022284 6.77161957 10.75171612 14.5258857 12.0625 24.75 C13.23541616 40.30820537 12.35860903 54.24047623 2.0625 66.75 C-3.75900846 73.28822684 -11.25581538 76.52550465 -19.95703125 77.09765625 C-27.14914042 77.32466211 -32.42046989 76.69202654 -38.9375 73.75 C-38.96063729 63.61460923 -38.97842219 53.47922471 -38.98931217 43.34381294 C-38.99453795 38.63789057 -39.0016301 33.93198622 -39.01293945 29.22607422 C-39.02377912 24.68736468 -39.02977914 20.1486725 -39.03237724 15.60995102 C-39.03422954 13.87554526 -39.03784643 12.14114049 -39.04323006 10.4067421 C-39.05045478 7.98354259 -39.05149033 5.56041552 -39.05102539 3.13720703 C-39.05462067 2.41503998 -39.05821594 1.69287292 -39.06192017 0.94882202 C-39.05155216 -4.02189568 -39.05155216 -4.02189568 -37.9375 -6.25 C-24.8082348 -9.28736732 -11.05440287 -7.9584416 0 0 Z " fill="#020201" transform="translate(374.9375,580.25)"/>
<path d="M0 0 C2.92152702 1.8344472 5.4326609 3.86532181 7 7 C7.45233948 12.41514981 6.76516487 15.2188398 3.625 19.625 C2.89023438 20.66140625 2.15546875 21.6978125 1.3984375 22.765625 C0.60128411 23.84547079 -0.19821174 24.92359114 -1 26 C-2.15628906 27.57007813 -2.15628906 27.57007813 -3.3359375 29.171875 C-37.14219207 74.38073069 -37.14219207 74.38073069 -54 80 C-53.80664062 79.175 -53.61328125 78.35 -53.4140625 77.5 C-53.15367187 76.345 -52.89328125 75.19 -52.625 74 C-52.33625 72.72253906 -52.0475 71.44507813 -51.75 70.12890625 C-51.19090622 67.38111709 -50.89412714 64.76669521 -50.8125 61.96484375 C-50.4954622 53.66650515 -49.11024575 48.97634908 -42.9375 43.1875 C-41.18221876 41.60062925 -39.41049545 40.035824 -37.62597656 38.48193359 C-33.57786439 34.79243796 -30.34919799 30.31209241 -27 26 C-26.14638835 24.92534016 -25.29219895 23.85113904 -24.4375 22.77734375 C-19.95923821 17.10177468 -15.83010379 11.44391949 -12.44921875 5.0234375 C-9.29905641 0.62509763 -5.25306992 -0.85764407 0 0 Z " fill="#F5EADA" transform="translate(1043,334)"/>
<path d="M0 0 C5.62393918 5.01504813 8.61144609 9.80361775 9.3125 17.375 C8.73463912 24.07818619 7.13921655 28.31824511 2.0625 32.875 C-3.33964854 37.35076854 -7.18989523 38.4669065 -14.18359375 38.30859375 C-20.22200988 37.64696424 -24.30846747 35.04429198 -28.375 30.625 C-32.43891526 25.43467344 -33.5659443 20.56495387 -33 14 C-31.59335936 6.95286968 -27.73215452 3.09763917 -22 -1 C-15.47229472 -4.84967235 -6.34111714 -3.87942329 0 0 Z " fill="#EEE7DA" transform="translate(675,791)"/>
<path d="M0 0 C4.48079264 3.12795298 7.19779195 7.15995942 8.23828125 12.5625 C9.11677261 19.62379134 8.59380527 24.8673078 4.19921875 30.61328125 C-0.58796579 35.37185712 -6.15615703 37.79364927 -12.88671875 38.125 C-18.54913534 37.79609982 -23.16391164 36.03471338 -27.296875 32.1015625 C-32.43927314 26.19455123 -33.32831116 21.60837483 -33.20703125 13.8984375 C-32.42426553 8.03456097 -29.55156409 4.01729039 -25.16796875 0.16015625 C-17.24031229 -5.52267912 -8.17344993 -4.4744236 0 0 Z " fill="#EFE7D9" transform="translate(984.76171875,791.4375)"/>
<path d="M0 0 C5.1975 -0.1546875 5.1975 -0.1546875 10.5 -0.3125 C11.57572266 -0.35802002 12.65144531 -0.40354004 13.75976562 -0.45043945 C20.48636505 -0.54662238 24.81607724 0.63995354 30 5 C34.09116126 9.30648554 35.82742353 12.89456712 36.3125 18.8125 C36.13322956 24.10097808 35.01004439 28.7566912 31.41796875 32.765625 C26.7036577 36.99720703 22.37175463 39.27450006 15.91796875 39.1953125 C14.65762817 39.18781982 14.65762817 39.18781982 13.37182617 39.18017578 C12.32099854 39.16196777 11.2701709 39.14375977 10.1875 39.125 C6.825625 39.08375 3.46375 39.0425 0 39 C0 26.13 0 13.26 0 0 Z " fill="#EFE7D9" transform="translate(1100,789)"/>
<path d="M0 0 C6.69449518 3.71916399 9.25543163 8.80022449 11.375 15.875 C12.375 19.875 12.375 19.875 12.375 32.875 C-1.155 32.875 -14.685 32.875 -28.625 32.875 C-28.625 21.51333353 -27.18664052 12.66038427 -19.625 3.875 C-13.68959261 -1.30056055 -7.49772944 -2.32688155 0 0 Z " fill="#060200" transform="translate(1258.625,629.125)"/>
<path d="M0 0 C0.17367998 4.87449089 0.30035478 9.74716397 0.38452148 14.62402344 C0.4196197 16.28091823 0.46731347 17.9375978 0.52807617 19.59375 C1.01942804 33.33508628 1.01942804 33.33508628 -1.47290039 37.40551758 C-6.53724553 41.8514598 -12.34574008 43.25167398 -19 43 C-24.25710035 42.32683471 -27.74676759 40.17744617 -31 36 C-33.82306448 30.24966397 -34.10808456 23.87497833 -32.34765625 17.71875 C-28.41405332 8.93989367 -21.3866059 5.39853816 -12.76953125 1.98046875 C-8.26953479 0.38738115 -4.79686454 -0.0378925 0 0 Z " fill="#060605" transform="translate(683,672)"/>
<path d="M0 0 C0.12371396 5.05362021 0.21439046 10.10635702 0.2746582 15.16113281 C0.29978367 16.88003901 0.33389047 18.59883856 0.37719727 20.31738281 C0.43794029 22.78998114 0.46622762 25.26116606 0.48828125 27.734375 C0.51408768 28.50118591 0.5398941 29.26799683 0.56648254 30.05804443 C0.56853398 33.97152316 0.38526961 35.60749803 -2.40600586 38.45117188 C-8.102906 41.85269042 -13.25780663 43.735512 -20 43 C-25.17080005 41.3348271 -28.02898102 39.57079843 -31 35 C-33.13399287 28.59802138 -33.1859128 20.65644467 -30.4375 14.5 C-29.633125 13.675 -28.82875 12.85 -28 12 C-27.53722656 11.50371094 -27.07445312 11.00742187 -26.59765625 10.49609375 C-19.7051519 3.77211029 -9.55594366 -0.09123322 0 0 Z " fill="#050404" transform="translate(497,672)"/>
<path d="M0 0 C4.73292518 2.26146596 6.75835722 4.94014523 9.375 9.4375 C11.05974633 14.49173898 10.95519314 18.72205532 8.75 23.5625 C6.29225246 28.08299994 3.01101532 31.11949234 -1.625 33.4375 C-7.45744197 33.9289074 -12.80372553 34.26825678 -18.1875 31.8125 C-22.59590104 27.51713489 -25.39724729 23.39828521 -25.875 17.1875 C-25.50548337 11.64475058 -23.88075404 7.93082913 -20.3125 3.6875 C-13.76095353 -1.79751565 -8.03683342 -3.09211501 0 0 Z " fill="#EB4B18" transform="translate(978.625,698.5625)"/>
<path d="M0 0 C8 0 8 0 9.8828125 1.6171875 C10.29273438 2.36226562 10.70265625 3.10734375 11.125 3.875 C11.59421875 4.68582031 12.0634375 5.49664063 12.546875 6.33203125 C13.02640625 7.21246094 13.5059375 8.09289062 14 9 C15.119975 10.85720624 16.24484313 12.71147205 17.375 14.5625 C18.25225199 16.04033219 19.12809876 17.51900464 20 19 C23.28816124 15.12678305 25.79349086 11.10466735 28.25 6.6875 C28.61351562 6.04232422 28.97703125 5.39714844 29.3515625 4.73242188 C30.23836205 3.15718584 31.11974563 1.57890286 32 0 C34.97 0 37.94 0 41 0 C41 12.87 41 25.74 41 39 C38.36 39 35.72 39 33 39 C32.67 31.41 32.34 23.82 32 16 C29.28313235 20.92290403 29.28313235 20.92290403 26.61669922 25.87304688 C26.26623535 26.48212891 25.91577148 27.09121094 25.5546875 27.71875 C25.20905762 28.34716797 24.86342773 28.97558594 24.50732422 29.62304688 C23 31 23 31 17 31 C13.04 24.07 13.04 24.07 9 17 C8.67 24.26 8.34 31.52 8 39 C5.36 39 2.72 39 0 39 C0 26.13 0 13.26 0 0 Z " fill="#F1E8DA" transform="translate(467,789)"/>
<path d="M0 0 C9 0 9 0 10.99975586 1.72827148 C11.40073486 2.51790283 11.80171387 3.30753418 12.21484375 4.12109375 C12.67310547 4.97380859 13.13136719 5.82652344 13.60351562 6.70507812 C14.04373047 7.60677734 14.48394531 8.50847656 14.9375 9.4375 C15.85949699 11.20900595 16.78509768 12.97864247 17.71484375 14.74609375 C18.10792725 15.53685303 18.50101074 16.3276123 18.90600586 17.14233398 C19.86773857 19.16044093 19.86773857 19.16044093 22 20 C22.24621094 19.32453125 22.49242187 18.6490625 22.74609375 17.953125 C24.26230379 14.3822378 26.11877348 11.10197203 28.0625 7.75 C28.42666016 7.11320313 28.79082031 6.47640625 29.16601562 5.8203125 C31.85925752 1.14074248 31.85925752 1.14074248 33 0 C35.64 0 38.28 0 41 0 C41 12.87 41 25.74 41 39 C38.36 39 35.72 39 33 39 C32.67 31.74 32.34 24.48 32 17 C29.36 21.62 26.72 26.24 24 31 C18 31 18 31 16.49267578 29.62304688 C15.97423096 28.68041992 15.97423096 28.68041992 15.4453125 27.71875 C15.09484863 27.10966797 14.74438477 26.50058594 14.38330078 25.87304688 C13.96806152 25.08994141 13.55282227 24.30683594 13.125 23.5 C11.76375 21.025 10.4025 18.55 9 16 C8.67 23.59 8.34 31.18 8 39 C5.36 39 2.72 39 0 39 C0 26.13 0 13.26 0 0 Z " fill="#F0E8DB" transform="translate(583,789)"/>
<path d="M0 0 C8 0 8 0 9.62890625 1.36328125 C9.93699219 2.00652344 10.24507812 2.64976562 10.5625 3.3125 C10.93890625 4.03050781 11.3153125 4.74851562 11.703125 5.48828125 C12.34507812 6.73158203 12.34507812 6.73158203 13 8 C14.2542286 10.01045467 15.52553045 12.01034507 16.8125 14 C17.41707031 14.94875 18.02164062 15.8975 18.64453125 16.875 C19.09183594 17.57625 19.53914063 18.2775 20 19 C22.15420001 16.97565489 23.73474803 15.00914351 25.2265625 12.4609375 C25.6184375 11.79835938 26.0103125 11.13578125 26.4140625 10.453125 C27.01347656 9.42445313 27.01347656 9.42445313 27.625 8.375 C31.89527027 1.10472973 31.89527027 1.10472973 33 0 C35.64 0 38.28 0 41 0 C41 12.87 41 25.74 41 39 C38.36 39 35.72 39 33 39 C32.67 31.74 32.34 24.48 32 17 C29.2431621 21.59555002 29.2431621 21.59555002 26.52661133 26.21484375 C24.79794183 28.99902361 23.64647692 30.77373308 20.5 31.875 C16.60251714 30.510881 15.16387861 27.40415925 13.1875 24 C11.805625 21.69 10.42375 19.38 9 17 C8.67 24.26 8.34 31.52 8 39 C5.36 39 2.72 39 0 39 C0 26.13 0 13.26 0 0 Z " fill="#F0E7D9" transform="translate(1011,789)"/>
<path d="M0 0 C2.05078125 0.03255208 4.1015625 0.06510417 6.15234375 0.09765625 C9.35209665 7.25050194 12.48322908 14.4321335 15.58105469 21.62963867 C16.13425841 22.91315681 16.68897677 24.19602306 17.24511719 25.47827148 C18.05619552 27.34862568 18.86259316 29.22093441 19.66796875 31.09375 C20.14524414 32.19904053 20.62251953 33.30433105 21.11425781 34.44311523 C22.15234375 37.09765625 22.15234375 37.09765625 22.15234375 39.09765625 C19.51234375 39.09765625 16.87234375 39.09765625 14.15234375 39.09765625 C11.15234375 33.34765625 11.15234375 33.34765625 11.15234375 31.09765625 C5.21234375 31.42765625 -0.72765625 31.75765625 -6.84765625 32.09765625 C-7.83765625 34.40765625 -8.82765625 36.71765625 -9.84765625 39.09765625 C-12.81765625 39.09765625 -15.78765625 39.09765625 -18.84765625 39.09765625 C-9.07470768 15.56718008 -9.07470768 15.56718008 -5.28515625 6.66015625 C-4.83011719 5.58894531 -4.37507812 4.51773438 -3.90625 3.4140625 C-2.40409838 0.12706651 -2.40409838 0.12706651 0 0 Z " fill="#F0E8DB" transform="translate(837.84765625,788.90234375)"/>
<path d="M0 0 C2.64 0 5.28 0 8 0 C12.30084431 7.97229676 15.87344281 16.21540375 19.375 24.5625 C19.82794434 25.63371094 20.28088867 26.70492187 20.74755859 27.80859375 C21.16859863 28.82179688 21.58963867 29.835 22.0234375 30.87890625 C22.40419434 31.7922876 22.78495117 32.70566895 23.17724609 33.64672852 C24 36 24 36 24 39 C21.36 39 18.72 39 16 39 C14.74335022 36.09399739 14 34.20395416 14 31 C7.73 31 1.46 31 -5 31 C-5.66 32.98 -6.32 34.96 -7 37 C-7.33 37.66 -7.66 38.32 -8 39 C-10.64 39 -13.28 39 -16 39 C-13.59851661 31.35595627 -10.58735974 24.05096975 -7.4375 16.6875 C-6.94314453 15.52154297 -6.44878906 14.35558594 -5.93945312 13.15429688 C-1.97867786 3.84459913 -1.97867786 3.84459913 0 0 Z " fill="#EFE8DA" transform="translate(425,789)"/>
<path d="M0 0 C1.9453125 -0.29296875 1.9453125 -0.29296875 4.125 -0.1875 C5.40375 -0.125625 6.6825 -0.06375 8 0 C13.70218489 12.8730631 19.26449836 25.73674542 24 39 C21.36 39 18.72 39 16 39 C13 33.25 13 33.25 13 31 C6.73 31 0.46 31 -6 31 C-6.495 33.475 -6.495 33.475 -7 36 C-7.33 36.99 -7.66 37.98 -8 39 C-10.64 39 -13.28 39 -16 39 C-15.32448973 34.67529371 -13.82899861 30.84049076 -12.12890625 26.8359375 C-11.84651596 26.16204987 -11.56412567 25.48816223 -11.2731781 24.79385376 C-10.67776746 23.37594916 -10.08007205 21.95900206 -9.48022461 20.54296875 C-8.56353943 18.37745549 -7.65527468 16.20855233 -6.74804688 14.0390625 C-6.16716262 12.65864536 -5.58579875 11.27842993 -5.00390625 9.8984375 C-4.73300674 9.25151947 -4.46210724 8.60460144 -4.18299866 7.93807983 C-2.96746579 5.07881258 -1.73099173 2.59648759 0 0 Z " fill="#EFE7DA" transform="translate(542,789)"/>
<path d="M0 0 C1.9453125 -0.29296875 1.9453125 -0.29296875 4.125 -0.1875 C5.40375 -0.125625 6.6825 -0.06375 8 0 C9.63981918 3.78446511 11.2753436 7.57075087 12.90722656 11.35864258 C13.46079011 12.64200557 14.0154439 13.92489896 14.57128906 15.20727539 C17.97050508 23.05185603 21.19818602 30.91920938 24 39 C21.36 39 18.72 39 16 39 C13 33.25 13 33.25 13 31 C6.73 31 0.46 31 -6 31 C-6.495 33.475 -6.495 33.475 -7 36 C-7.33 36.99 -7.66 37.98 -8 39 C-10.64 39 -13.28 39 -16 39 C-15.32448973 34.67529371 -13.82899861 30.84049076 -12.12890625 26.8359375 C-11.84651596 26.16204987 -11.56412567 25.48816223 -11.2731781 24.79385376 C-10.67776746 23.37594916 -10.08007205 21.95900206 -9.48022461 20.54296875 C-8.56353943 18.37745549 -7.65527468 16.20855233 -6.74804688 14.0390625 C-6.16716262 12.65864536 -5.58579875 11.27842993 -5.00390625 9.8984375 C-4.73300674 9.25151947 -4.46210724 8.60460144 -4.18299866 7.93807983 C-2.96746579 5.07881258 -1.73099173 2.59648759 0 0 Z " fill="#EEE7DA" transform="translate(1165,789)"/>
<path d="M0 0 C1.26171875 2.109375 1.26171875 2.109375 2 4 C1.01 5.32 0.02 6.64 -1 8 C-6.75 6.125 -6.75 6.125 -9 5 C-13.65275976 4.6947378 -13.65275976 4.6947378 -18 6 C-17.67 7.65 -17.34 9.3 -17 11 C-15.97519531 11.30292969 -14.95039062 11.60585938 -13.89453125 11.91796875 C-12.53359972 12.34032681 -11.17293647 12.76355003 -9.8125 13.1875 C-9.13896484 13.38408203 -8.46542969 13.58066406 -7.77148438 13.78320312 C-3.08483406 15.2692142 -0.10511032 17.0077153 3 21 C3.91072453 24.42860999 3.70690826 27.53386919 3 31 C0.01206049 35.21826755 -2.98975201 36.91935828 -8 38 C-15.54154788 38.47882844 -21.60063318 37.26624454 -28 33 C-27.49396008 30.83125748 -27.00016187 29.00032373 -26 27 C-23.35652976 27.45316633 -21.08148874 27.96354451 -18.625 29.0625 C-14.27989466 30.61432334 -10.34375244 30.44791748 -6 29 C-6 27.35 -6 25.7 -6 24 C-6.56847656 23.81824219 -7.13695312 23.63648438 -7.72265625 23.44921875 C-21.96296022 18.81339358 -21.96296022 18.81339358 -26 14 C-27.57455739 10.85088521 -27.34799118 8.47991184 -27 5 C-24.70730141 1.4260875 -22.96419903 -0.53886133 -19.125 -2.375 C-12.4872764 -3.70254472 -6.02376347 -3.28791978 0 0 Z " fill="#F0E8DB" transform="translate(728,791)"/>
<path d="M0 0 C2.51493083 1.41464859 3.46243003 2.97467323 4.45703125 5.65625 C6.76095785 16.13165729 4.99883948 26.34439899 1 36.125 C0.65710938 37.0325 0.31421875 37.94 -0.0390625 38.875 C-4.18884873 47.65648311 -12.52023399 50.54456145 -21 54.125 C-22.33472491 54.69901069 -23.66936598 55.2732164 -25.00390625 55.84765625 C-26.48697266 56.47994141 -26.48697266 56.47994141 -28 57.125 C-26.46622574 53.73496561 -24.45373872 51.00471049 -22.1875 48.0625 C-14.66148883 37.78738529 -11.05296446 26.32020942 -7.96875 14.0703125 C-7.70976929 13.05372559 -7.70976929 13.05372559 -7.44555664 12.01660156 C-6.96134609 10.09465097 -6.4939036 8.16849897 -6.02734375 6.2421875 C-4.87309834 2.73995237 -3.92840492 0.24552531 0 0 Z " fill="#0A0401" transform="translate(944,380.875)"/>
<path d="M0 0 C1.2578125 2.140625 1.2578125 2.140625 2 4 C0.35 5.32 -1.3 6.64 -3 8 C-3.598125 7.505 -4.19625 7.01 -4.8125 6.5 C-9.50233543 4.29301862 -13.90460245 4.16606857 -19 5 C-22.41311667 7.52570633 -23.66637768 8.99913304 -25 13 C-25.39537729 18.23874905 -24.80588657 21.53136583 -22 26 C-18.67783762 28.21477492 -17.44966677 28.29667707 -13.5625 28.3125 C-12.14130859 28.33763672 -12.14130859 28.33763672 -10.69140625 28.36328125 C-7.62874691 27.94988891 -6.27381441 27.03729471 -4 25 C-0.52100842 26.39159663 0.48052501 27.63251488 2 31 C0.75443908 31.81928886 -0.49666635 32.63015186 -1.75 33.4375 C-2.44609375 33.88996094 -3.1421875 34.34242188 -3.859375 34.80859375 C-8.59751441 37.44569689 -13.6927345 37.60329707 -19 37 C-25.75838979 35.07428821 -29.36507028 30.8108565 -33 25 C-35.32491607 20.35016786 -34.2188483 14.11247888 -33.25 9.1875 C-30.70515628 2.69814852 -27.02848109 0.01424055 -21 -3 C-13.92775622 -5.73764275 -6.15496008 -4.13735906 0 0 Z " fill="#EDE6D9" transform="translate(935,792)"/>
<path d="M0 0 C3.20384041 1.29516953 4.5905657 2.51997358 6.8125 5.125 C8.48087822 9.16423148 8.69030273 12.69129724 8 17 C5.91501679 21.09550274 4.24022217 23.3008496 0 25 C-4.08320923 25.64010706 -8.20889732 25.93323987 -11.94921875 23.984375 C-15.32133132 21.27362107 -16.75645976 19.02138397 -17.2734375 14.73046875 C-17.45293545 10.23611625 -17.57886603 7.0168906 -14.625 3.4375 C-10.06128171 -0.80023841 -6.0216915 -0.52238649 0 0 Z " fill="#080707" transform="translate(977,796)"/>
<path d="M0 0 C3.40514633 1.66796802 5.43753008 4.09515708 7.4375 7.3125 C8.37169166 11.77586018 8.29515647 15.89876713 5.8828125 19.8125 C3.47050497 22.78149388 1.68553807 24.78779197 -2.171875 25.2734375 C-9.98876369 25.58137554 -9.98876369 25.58137554 -13.5625 22.625 C-17.47721947 18.40914826 -17.38880263 15.3794017 -17.359375 9.7734375 C-16.80289254 5.47884463 -15.16828113 3.86654007 -12 1 C-8.26836358 -0.86581821 -4.06325499 -0.55464677 0 0 Z " fill="#070706" transform="translate(668,796)"/>
<path d="M0 0 C3.25599404 2.44199553 4.94471469 3.77164407 6.25 7.6875 C6.64177998 11.84036777 6.50515206 14.17719587 4.625 17.9375 C1.26807126 21.82447012 -1.68016481 23.38564904 -6.75 24.125 C-11.58375037 23.42007807 -14.53726161 21.14278607 -17.625 17.4375 C-19.13090941 13.7563881 -19.66957045 10.54823626 -18.75 6.6875 C-14.44509548 -0.36550395 -8.10751225 -3.86949448 0 0 Z " fill="#E74716" transform="translate(1251.75,797.3125)"/>
<path d="M0 0 C3.23878803 1.51143441 5.68075746 3.29209319 8 6 C9.44005891 10.44952333 9.58489682 14.66968122 7.4375 18.875 C4.10384456 23.14891723 1.33181285 24.65994396 -4 25.4375 C-7.94665429 24.86194625 -9.96043437 23.56674431 -13 21 C-16.04254852 16.77969077 -16.55270389 13.21798922 -15.76171875 8.19140625 C-13.20797522 0.84448257 -7.0843874 -1.02837882 0 0 Z " fill="#E94A17" transform="translate(351,796)"/>
<path d="M0 0 C2.64 0 5.28 0 8 0 C8 10.56 8 21.12 8 32 C14.6 32 21.2 32 28 32 C28 34.31 28 36.62 28 39 C18.76 39 9.52 39 0 39 C0 26.13 0 13.26 0 0 Z " fill="#F0E8DB" transform="translate(776,789)"/>
<path d="M0 0 C12.12 0 12.12 0 17.25 3.5625 C19.84388461 7.1754107 20.18339945 10.60605487 20 15 C18.77282621 18.82589474 17.40203783 20.61806406 14.5 23.375 C11 25 11 25 0 25 C0 16.75 0 8.5 0 0 Z " fill="#070606" transform="translate(1108,796)"/>
<path d="M0 0 C2.64 0 5.28 0 8 0 C8 12.87 8 25.74 8 39 C5.36 39 2.72 39 0 39 C0 26.13 0 13.26 0 0 Z " fill="#EBE3D5" transform="translate(1072,789)"/>
<path d="M0 0 C1.9453125 -0.29296875 1.9453125 -0.29296875 4.125 -0.1875 C5.40375 -0.125625 6.6825 -0.06375 8 0 C9.33934716 2.95564708 10.67044247 5.9149378 12 8.875 C12.3815625 9.71675781 12.763125 10.55851563 13.15625 11.42578125 C13.5171875 12.23144531 13.878125 13.03710938 14.25 13.8671875 C14.58515625 14.61081543 14.9203125 15.35444336 15.265625 16.12060547 C16 18 16 18 16 20 C15.38125 20.28875 14.7625 20.5775 14.125 20.875 C11.86674235 21.93720042 11.86674235 21.93720042 10 24 C9.62488281 23.07316406 9.24976563 22.14632812 8.86328125 21.19140625 C8.35152344 19.99386719 7.83976563 18.79632812 7.3125 17.5625 C6.81363281 16.36753906 6.31476562 15.17257812 5.80078125 13.94140625 C4.29630805 10.77723199 4.29630805 10.77723199 1.29296875 10.08984375 C0.53628906 10.06019531 -0.22039063 10.03054688 -1 10 C-2.25 3.375 -2.25 3.375 0 0 Z " fill="#F1EBE0" transform="translate(542,789)"/>
<path d="M0 0 C2.55263088 2.274694 3.84144815 4.43202693 5.1875 7.5625 C5.53167969 8.34753906 5.87585938 9.13257813 6.23046875 9.94140625 C7 12 7 12 7 14 C3.04 14 -0.92 14 -5 14 C-2.05357143 3.82142857 -2.05357143 3.82142857 0 0 Z " fill="#1C1C1A" transform="translate(545,799)"/>
<path d="M0 0 C3.58880268 4.30254214 4.52200925 8.6510811 6 14 C2.04 14 -1.92 14 -6 14 C-4.50829734 9.0276578 -2.39542583 4.58154261 0 0 Z " fill="#151414" transform="translate(429,799)"/>
<path d="M0 0 C2.55263088 2.274694 3.84144815 4.43202693 5.1875 7.5625 C5.53167969 8.34753906 5.87585938 9.13257813 6.23046875 9.94140625 C7 12 7 12 7 14 C3.04 14 -0.92 14 -5 14 C-1.85714286 4.42857143 -1.85714286 4.42857143 0 0 Z " fill="#1B1B1A" transform="translate(839,799)"/>
<path d="M0 0 C2.40243465 2.15344283 3.60244944 3.96874765 4.6875 7 C5.06455078 8.0209375 5.06455078 8.0209375 5.44921875 9.0625 C6 11 6 11 6 14 C2.37 14 -1.26 14 -5 14 C-2.05357143 3.82142857 -2.05357143 3.82142857 0 0 Z " fill="#161615" transform="translate(1168,799)"/>
<path d="M0 0 C6.14466391 -0.38404149 11.5624825 -0.1422223 17 3 C19.5 5.6875 19.5 5.6875 21 8 C19.02 9.65 17.04 11.3 15 13 C13.35 11.35 11.7 9.7 10 8 C10.66 8 11.32 8 12 8 C12.66 6.35 13.32 4.7 14 3 C7.07 2.505 7.07 2.505 0 2 C0 1.34 0 0.68 0 0 Z " fill="#EAE1D1" transform="translate(658,788)"/>
<path d="M0 0 C6.27 0.33 12.54 0.66 19 1 C19 1.66 19 2.32 19 3 C22.3 3 25.6 3 29 3 C29 3.33 29 3.66 29 4 C19.43 4 9.86 4 0 4 C0 2.68 0 1.36 0 0 Z " fill="#12110F" transform="translate(776,612)"/>
<path d="M0 0 C11.88 0 23.76 0 36 0 C36 0.33 36 0.66 36 1 C34.95199219 1.09087891 34.95199219 1.09087891 33.8828125 1.18359375 C32.97273437 1.26738281 32.06265625 1.35117187 31.125 1.4375 C30.22007812 1.51871094 29.31515625 1.59992188 28.3828125 1.68359375 C25.98889139 1.86989285 25.98889139 1.86989285 24 3 C21.98103136 3.0962762 19.9587571 3.12981825 17.9375 3.125 C16.85339844 3.12757813 15.76929688 3.13015625 14.65234375 3.1328125 C12 3 12 3 11 2 C9.15108054 1.76636119 7.29511969 1.58696365 5.4375 1.4375 C4.42558594 1.35371094 3.41367187 1.26992188 2.37109375 1.18359375 C1.19740234 1.09271484 1.19740234 1.09271484 0 1 C0 0.67 0 0.34 0 0 Z " fill="#212220" transform="translate(760,487)"/>
<path d="M0 0 C2.64 1.32 5.28 2.64 8 4 C8 4.66 8 5.32 8 6 C4.04 6 0.08 6 -4 6 C-3 3 -3 3 0 0 Z " fill="#232220" transform="translate(427,807)"/>
<path d="M0 0 C0.33 0 0.66 0 1 0 C1 3.3 1 6.6 1 10 C-0.32 9.67 -1.64 9.34 -3 9 C-4.77190909 10.35444301 -4.77190909 10.35444301 -6 12 C-4.43358249 7.69235185 -2.31663844 3.93828536 0 0 Z M-7 12 C-7 15 -7 15 -7 15 Z " fill="#0D0E0D" transform="translate(1043,804)"/>
<path d="M0 0 C2.97 0 5.94 0 9 0 C9 0.66 9 1.32 9 2 C10.32 2.33 11.64 2.66 13 3 C9.04 3 5.08 3 1 3 C0.67 2.01 0.34 1.02 0 0 Z " fill="#1E1C1A" transform="translate(664,611)"/>
<path d="M0 0 C3.96 0 7.92 0 12 0 C12 0.99 12 1.98 12 3 C8.04 3 4.08 3 0 3 C0 2.01 0 1.02 0 0 Z " fill="#1A1816" transform="translate(871,611)"/>
<path d="M0 0 C0.33 0 0.66 0 1 0 C1 2.97 1 5.94 1 9 C0.67 8.34 0.34 7.68 0 7 C-1.65 7.66 -3.3 8.32 -5 9 C-3.35 6.03 -1.7 3.06 0 0 Z " fill="#121211" transform="translate(499,804)"/>
<path d="M0 0 C0.99 0 1.98 0 3 0 C2.67 0.99 2.34 1.98 2 3 C1.34 3 0.68 3 0 3 C0 5.64 0 8.28 0 11 C-0.66 10.67 -1.32 10.34 -2 10 C-2.1953125 3.9453125 -2.1953125 3.9453125 -2 2 C-1.34 1.34 -0.68 0.68 0 0 Z " fill="#CBC8BF" transform="translate(732,617)"/>
<path d="M0 0 C0.66 0.33 1.32 0.66 2 1 C1.34 2.65 0.68 4.3 0 6 C-0.66 6 -1.32 6 -2 6 C-2.33 6.99 -2.66 7.98 -3 9 C-5.5625 10.1875 -5.5625 10.1875 -8 11 C-7.38511719 10.31164062 -7.38511719 10.31164062 -6.7578125 9.609375 C-6.21898437 8.99578125 -5.68015625 8.3821875 -5.125 7.75 C-4.59132813 7.14671875 -4.05765625 6.5434375 -3.5078125 5.921875 C-2.0202513 4.02581254 -0.99677564 2.18709995 0 0 Z " fill="#E7562A" transform="translate(942,440)"/>
<path d="M0 0 C0 0.66 0 1.32 0 2 C-4.95 3.485 -4.95 3.485 -10 5 C-10 4.01 -10 3.02 -10 2 C-6.5980513 -0.09350689 -3.94727588 -0.17942163 0 0 Z " fill="#DED8CA" transform="translate(1043,334)"/>
<path d="M0 0 C0.99 0.33 1.98 0.66 3 1 C0.22719294 4.08089673 -2.06326356 5.68775452 -6 7 C-4.61990379 3.66476748 -3.15049348 1.81392049 0 0 Z " fill="#1D130E" transform="translate(922,431)"/>
<path d="M0 0 C0.66 0.33 1.32 0.66 2 1 C1.35494404 4.48330216 0.01782732 7.09432866 -2 10 C-2.66 10 -3.32 10 -4 10 C-2.8905928 6.51329166 -1.73662334 3.22515763 0 0 Z " fill="#E4DED3" transform="translate(825,641)"/>
<path d="M0 0 C1.00206597 2.70557813 1.05573121 3.83280636 0.125 6.625 C-0.56903771 8.09019073 -1.27495211 9.54990422 -2 11 C-2.66 11 -3.32 11 -4 11 C-2.7874262 7.27566618 -1.49140021 3.62197194 0 0 Z " fill="#DBD6C9" transform="translate(828,806)"/>
<path d="M0 0 C0.66 0 1.32 0 2 0 C3.49821059 3.37097383 4 5.20442119 4 9 C3.34 9 2.68 9 2 9 C1.34 6.03 0.68 3.06 0 0 Z " fill="#EDE7D9" transform="translate(746,708)"/>
<path d="M0 0 C0.99 0.33 1.98 0.66 3 1 C3.33 3.31 3.66 5.62 4 8 C2.68 7.34 1.36 6.68 0 6 C0 4.02 0 2.04 0 0 Z " fill="#CFCCC4" transform="translate(551,565)"/>
<path d="M0 0 C2.97 0.495 2.97 0.495 6 1 C5.67 1.66 5.34 2.32 5 3 C2.6859378 3.73075648 0.35171131 4.40138258 -2 5 C-1.34 3.35 -0.68 1.7 0 0 Z " fill="#161514" transform="translate(831,820)"/>
<path d="M0 0 C0.66 1.32 1.32 2.64 2 4 C0.75 6.75 0.75 6.75 -1 9 C-1.66 9 -2.32 9 -3 9 C-2.01 6.03 -1.02 3.06 0 0 Z " fill="#E1DBCF" transform="translate(539,794)"/>
</svg>
